<svg width="64" height="64" xmlns="http://www.w3.org/2000/svg" xmlns:xlink="http://www.w3.org/1999/xlink" xml:space="preserve" overflow="hidden"><g transform="translate(-448 -328)"><path d="M465 356 465 350 497 350 497 349C496.997 347.897 496.103 347.003 495 347L453 347C451.897 347.003 451.003 347.897 451 349L451 357C451.003 358.103 451.897 358.997 453 359L465 359 465 363 453 363C451.897 363.003 451.003 363.897 451 365L451 373C451.003 374.103 451.897 374.997 453 375L465 375 465 389 509 389 509 356ZM458 355C456.895 355 456 354.105 456 353 456 351.895 456.895 351 458 351 459.105 351 460 351.895 460 353 459.997 354.103 459.103 354.997 458 355ZM458 371C456.895 371 456 370.105 456 369 456 367.895 456.895 367 458 367 459.105 367 460 367.895 460 369 459.997 370.103 459.103 370.997 458 371ZM476 377C472.134 377 469 373.866 469 370 469 366.134 472.134 363 476 363L476 370 483 370C483 373.866 479.866 377 476 377ZM479 367 479 360C482.866 360 486 363.134 486 367ZM495 331 453 331C451.897 331.003 451.003 331.897 451 333L451 341C451.003 342.103 451.897 342.997 453 343L495 343C496.103 342.997 496.997 342.103 497 341L497 333C496.997 331.897 496.103 331.003 495 331ZM458 339C456.895 339 456 338.105 456 337 456 335.895 456.895 335 458 335 459.105 335 460 335.895 460 337 459.997 338.103 459.103 338.997 458 339ZM471 339 467 339 467 335 471 335ZM480 339 476 339 476 335 480 335ZM490 339 486 339 486 335 490 335Z" fill="#78B9EB"/><path d="M458 372C456.343 372 455 370.657 455 369 455 367.343 456.343 366 458 366 459.657 366 461 367.343 461 369 461 370.657 459.657 372 458 372ZM458 368C457.448 368 457 368.448 457 369 457 369.552 457.448 370 458 370 458.552 370 459 369.552 459 369 459 368.448 458.552 368 458 368ZM458 356C456.343 356 455 354.657 455 353 455 351.343 456.343 350 458 350 459.657 350 461 351.343 461 353 461 354.657 459.657 356 458 356ZM458 352C457.448 352 457 352.448 457 353 457 353.552 457.448 354 458 354 458.552 354 459 353.552 459 353 459 352.448 458.552 352 458 352ZM458 340C456.343 340 455 338.657 455 337 455 335.343 456.343 334 458 334 459.657 334 461 335.343 461 337 461 338.657 459.657 340 458 340ZM458 336C457.448 336 457 336.448 457 337 457 337.552 457.448 338 458 338 458.552 338 459 337.552 459 337 459 336.448 458.552 336 458 336Z" fill="#006DF0"/><path d="M509 349 498 349C498 347.343 496.657 346 495 346L495 344C496.657 344 498 342.657 498 341L498 333C498 331.343 496.657 330 495 330L453 330C451.343 330 450 331.343 450 333L450 341C450 342.657 451.343 344 453 344L453 346C451.343 346 450 347.343 450 349L450 357C450 358.657 451.343 360 453 360L453 362C451.343 362 450 363.343 450 365L450 373C450 374.657 451.343 376 453 376L464 376 464 389C464 389.552 464.448 390 465 390L509 390C509.552 390 510 389.552 510 389L510 350C510 349.448 509.552 349 509 349ZM508 351 508 355 466 355 466 351ZM452 341 452 333C452 332.448 452.448 332 453 332L495 332C495.552 332 496 332.448 496 333L496 341C496 341.552 495.552 342 495 342L453 342C452.448 342 452 341.552 452 341ZM455 344 493 344 493 346 455 346ZM452 357 452 349C452 348.448 452.448 348 453 348L495 348C495.552 348 496 348.448 496 349L465 349C464.448 349 464 349.448 464 350L464 358 453 358C452.448 358 452 357.552 452 357ZM455 360 464 360 464 362 455 362ZM453 374C452.448 374 452 373.552 452 373L452 365C452 364.448 452.448 364 453 364L464 364 464 374ZM466 388 466 357 508 357 508 388Z" fill="#006DF0"/><path d="M468 352 470 352 470 354 468 354Z" fill="#006DF0"/><path d="M472 352 474 352 474 354 472 354Z" fill="#006DF0"/><path d="M476 352 478 352 478 354 476 354Z" fill="#006DF0"/><path d="M483 369 477 369 477 363C477 362.448 476.552 362 476 362 471.582 362 468 365.582 468 370 468 374.418 471.582 378 476 378 480.418 378 484 374.418 484 370 484 369.448 483.552 369 483 369ZM476 376C472.686 376.003 469.998 373.319 469.995 370.005 469.992 367.073 472.109 364.569 475 364.083L475 370C475 370.552 475.448 371 476 371L481.917 371C481.425 373.885 478.927 375.996 476 376Z" fill="#006DF0"/><path d="M479 368 486 368C486.552 368 487 367.552 487 367 486.995 362.584 483.416 359.005 479 359 478.448 359 478 359.448 478 360L478 367C478 367.552 478.448 368 479 368ZM480 361.083C482.516 361.513 484.487 363.484 484.917 366L480 366ZM467 340 471 340C471.552 340 472 339.552 472 339L472 335C472 334.448 471.552 334 471 334L467 334C466.448 334 466 334.448 466 335L466 339C466 339.552 466.448 340 467 340ZM468 336 470 336 470 338 468 338ZM476 340 480 340C480.552 340 481 339.552 481 339L481 335C481 334.448 480.552 334 480 334L476 334C475.448 334 475 334.448 475 335L475 339C475 339.552 475.448 340 476 340ZM477 336 479 336 479 338 477 338ZM486 340 490 340C490.552 340 491 339.552 491 339L491 335C491 334.448 490.552 334 490 334L486 334C485.448 334 485 334.448 485 335L485 339C485 339.552 485.448 340 486 340ZM487 336 489 336 489 338 487 338ZM504 374C502.895 374 502 374.895 502 376 502.002 376.224 502.043 376.446 502.12 376.657L498.365 381.037C497.963 380.957 497.546 381.008 497.176 381.183L492.981 378.183C492.987 378.12 493 378.06 493 377.996 493.009 376.891 492.121 375.989 491.017 375.979 489.912 375.97 489.009 376.858 489 377.963 488.999 378.097 489.011 378.231 489.037 378.362L484.658 382.12C484.447 382.043 484.225 382.002 484 382 482.885 381.99 481.973 382.885 481.962 384 481.952 385.115 482.847 386.027 483.962 386.038 485.077 386.048 485.989 385.153 486 384.038 486.001 383.902 485.989 383.767 485.963 383.634L490.342 379.88C490.824 380.06 491.359 380.037 491.824 379.817L496.024 382.817C496.018 382.88 496.005 382.94 496.005 383.004 496.005 384.109 496.9 385.004 498.005 385.004 499.11 385.004 500.005 384.109 500.005 383.004 500.003 382.779 499.962 382.557 499.885 382.346L503.639 377.967C504.725 378.167 505.768 377.448 505.968 376.362 506.168 375.275 505.449 374.233 504.363 374.033 504.243 374.011 504.122 374 504 374Z" fill="#006DF0"/><path d="M490 359 494 359 494 361 490 361Z" fill="#006DF0"/><path d="M496 359 506 359 506 361 496 361Z" fill="#006DF0"/><path d="M468 380 470 380 470 382 468 382Z" fill="#006DF0"/><path d="M472 380 479 380 479 382 472 382Z" fill="#006DF0"/><path d="M468 384 472 384 472 386 468 386Z" fill="#006DF0"/><path d="M474 384 479 384 479 386 474 386Z" fill="#006DF0"/><path d="M490 363 494 363 494 365 490 365Z" fill="#006DF0"/><path d="M496 363 506 363 506 365 496 365Z" fill="#006DF0"/><path d="M490 367 500 367 500 369 490 369Z" fill="#006DF0"/><path d="M502 367 506 367 506 369 502 369Z" fill="#006DF0"/></g></svg>